# xmcd
#
# Track frame offsets: 
#        150
#        32210
#        48175
#        57665
#        70760
#        83442
#        98407
#        137115
#        159647
#        176640
#        189140
#
# Disc length: 2613 seconds
#
# Revision: 0
# Processed by: cddbd v1.5.1PL0 Copyright (c) Steve Scherf et al.
# Submitted via: ExactAudioCopy v0.95a5
#
DISCID=870a330b
DTITLE=Jandek - 0758 One Foot in the North
DYEAR=1991
DGENRE=Lo-fi
TTITLE0=Yellow Pages
TTITLE1=Angel
TTITLE2=Show the Man Your Picture
TTITLE3=Think About Your Lady
TTITLE4=Real Fine Movement
TTITLE5=Alehouse Blues
TTITLE6=Upon the Grandeur
TTITLE7=Phoenix
TTITLE8=Dreaming Man
TTITLE9=Breast in a Moonbeam
TTITLE10=Honey
EXTD=
EXTT0=
EXTT1=
EXTT2=
EXTT3=
EXTT4=
EXTT5=
EXTT6=
EXTT7=
EXTT8=
EXTT9=
EXTT10=
PLAYORDER=
